<svg id="visual" viewBox="0 0 960 540" width="960" height="540" xmlns="http://www.w3.org/2000/svg" xmlns:xlink="http://www.w3.org/1999/xlink" version="1.1"><path d="M0 352L80 352.5C160 353 320 354 480 360.8C640 367.7 800 380.3 880 386.7L960 393L960 541L880 541C800 541 640 541 480 541C320 541 160 541 80 541L0 541Z" fill="#a9ebeb"></path><path d="M0 377L80 375C160 373 320 369 480 381C640 393 800 421 880 435L960 449L960 541L880 541C800 541 640 541 480 541C320 541 160 541 80 541L0 541Z" fill="#5a9faf"></path><path d="M0 462L80 456.7C160 451.3 320 440.7 480 439.5C640 438.3 800 446.7 880 450.8L960 455L960 541L880 541C800 541 640 541 480 541C320 541 160 541 80 541L0 541Z" fill="#0b5874"></path></svg>