<svg id="visual" viewBox="0 0 960 540" width="960" height="540" xmlns="http://www.w3.org/2000/svg" xmlns:xlink="http://www.w3.org/1999/xlink" version="1.1"><path d="M0 417L53.3 411.2C106.7 405.3 213.3 393.7 320 390.2C426.7 386.7 533.3 391.3 640 386C746.7 380.7 853.3 365.3 906.7 357.7L960 350L960 541L906.7 541C853.3 541 746.7 541 640 541C533.3 541 426.7 541 320 541C213.3 541 106.7 541 53.3 541L0 541Z" fill="#a9ebeb"></path><path d="M0 397L53.3 398.3C106.7 399.7 213.3 402.3 320 404.5C426.7 406.7 533.3 408.3 640 404.5C746.7 400.7 853.3 391.3 906.7 386.7L960 382L960 541L906.7 541C853.3 541 746.7 541 640 541C533.3 541 426.7 541 320 541C213.3 541 106.7 541 53.3 541L0 541Z" fill="#5a9faf"></path><path d="M0 449L53.3 455.3C106.7 461.7 213.3 474.3 320 478C426.7 481.7 533.3 476.3 640 467.2C746.7 458 853.3 445 906.7 438.5L960 432L960 541L906.7 541C853.3 541 746.7 541 640 541C533.3 541 426.7 541 320 541C213.3 541 106.7 541 53.3 541L0 541Z" fill="#0b5874"></path></svg>