<svg id="visual" viewBox="0 0 900 450" width="900" height="450" xmlns="http://www.w3.org/2000/svg" xmlns:xlink="http://www.w3.org/1999/xlink" version="1.1"><path d="M0 315L37.5 313.5C75 312 150 309 225 302.5C300 296 375 286 450 290.3C525 294.7 600 313.3 675 320.2C750 327 825 322 862.5 319.5L900 317L900 451L862.5 451C825 451 750 451 675 451C600 451 525 451 450 451C375 451 300 451 225 451C150 451 75 451 37.5 451L0 451Z" fill="#a9ebeb"></path><path d="M0 356L37.5 350.2C75 344.3 150 332.7 225 327.3C300 322 375 323 450 329.7C525 336.3 600 348.7 675 353.8C750 359 825 357 862.5 356L900 355L900 451L862.5 451C825 451 750 451 675 451C600 451 525 451 450 451C375 451 300 451 225 451C150 451 75 451 37.5 451L0 451Z" fill="#5a9faf"></path><path d="M0 387L37.5 389.2C75 391.3 150 395.7 225 392.8C300 390 375 380 450 375.5C525 371 600 372 675 373.3C750 374.7 825 376.3 862.5 377.2L900 378L900 451L862.5 451C825 451 750 451 675 451C600 451 525 451 450 451C375 451 300 451 225 451C150 451 75 451 37.5 451L0 451Z" fill="#0b5874"></path></svg>