<svg id="visual" viewBox="0 0 960 540" width="960" height="540" xmlns="http://www.w3.org/2000/svg" xmlns:xlink="http://www.w3.org/1999/xlink" version="1.1"><path d="M0 460L40 463.5C80 467 160 474 240 465C320 456 400 431 480 430.5C560 430 640 454 720 462.3C800 470.7 880 463.3 920 459.7L960 456L960 541L920 541C880 541 800 541 720 541C640 541 560 541 480 541C400 541 320 541 240 541C160 541 80 541 40 541L0 541Z" fill="#a9ebeb"></path><path d="M0 483L40 488.8C80 494.7 160 506.3 240 508.8C320 511.3 400 504.7 480 492.3C560 480 640 462 720 457C800 452 880 460 920 464L960 468L960 541L920 541C880 541 800 541 720 541C640 541 560 541 480 541C400 541 320 541 240 541C160 541 80 541 40 541L0 541Z" fill="#5a9faf"></path><path d="M0 478L40 481.5C80 485 160 492 240 498.8C320 505.7 400 512.3 480 515C560 517.7 640 516.3 720 511.5C800 506.7 880 498.3 920 494.2L960 490L960 541L920 541C880 541 800 541 720 541C640 541 560 541 480 541C400 541 320 541 240 541C160 541 80 541 40 541L0 541Z" fill="#0b5874"></path></svg>