<svg id="visual" viewBox="0 0 900 450" width="900" height="450" xmlns="http://www.w3.org/2000/svg" xmlns:xlink="http://www.w3.org/1999/xlink" version="1.1"><path d="M0 283L37.5 280.5C75 278 150 273 225 272.7C300 272.3 375 276.7 450 285.8C525 295 600 309 675 314.2C750 319.3 825 315.7 862.5 313.8L900 312L900 451L862.5 451C825 451 750 451 675 451C600 451 525 451 450 451C375 451 300 451 225 451C150 451 75 451 37.5 451L0 451Z" fill="#a9ebeb"></path><path d="M0 338L37.5 340C75 342 150 346 225 349.2C300 352.3 375 354.7 450 349.8C525 345 600 333 675 329.3C750 325.7 825 330.3 862.5 332.7L900 335L900 451L862.5 451C825 451 750 451 675 451C600 451 525 451 450 451C375 451 300 451 225 451C150 451 75 451 37.5 451L0 451Z" fill="#5a9faf"></path><path d="M0 386L37.5 383C75 380 150 374 225 372.2C300 370.3 375 372.7 450 375.5C525 378.3 600 381.7 675 379.7C750 377.7 825 370.3 862.5 366.7L900 363L900 451L862.5 451C825 451 750 451 675 451C600 451 525 451 450 451C375 451 300 451 225 451C150 451 75 451 37.5 451L0 451Z" fill="#0b5874"></path></svg>