<svg id="visual" viewBox="0 0 900 450" width="900" height="450" xmlns="http://www.w3.org/2000/svg" xmlns:xlink="http://www.w3.org/1999/xlink" version="1.1"><path d="M0 310L37.5 314.3C75 318.7 150 327.3 225 326.2C300 325 375 314 450 303.3C525 292.7 600 282.3 675 286.7C750 291 825 310 862.5 319.5L900 329L900 451L862.5 451C825 451 750 451 675 451C600 451 525 451 450 451C375 451 300 451 225 451C150 451 75 451 37.5 451L0 451Z" fill="#a9ebeb"></path><path d="M0 321L37.5 326.8C75 332.7 150 344.3 225 347.5C300 350.7 375 345.3 450 344C525 342.7 600 345.3 675 344.7C750 344 825 340 862.5 338L900 336L900 451L862.5 451C825 451 750 451 675 451C600 451 525 451 450 451C375 451 300 451 225 451C150 451 75 451 37.5 451L0 451Z" fill="#5a9faf"></path><path d="M0 365L37.5 370.5C75 376 150 387 225 389C300 391 375 384 450 380.7C525 377.3 600 377.7 675 381.7C750 385.7 825 393.3 862.5 397.2L900 401L900 451L862.5 451C825 451 750 451 675 451C600 451 525 451 450 451C375 451 300 451 225 451C150 451 75 451 37.5 451L0 451Z" fill="#0b5874"></path></svg>