<svg id="visual" viewBox="0 0 900 450" width="900" height="450" xmlns="http://www.w3.org/2000/svg" xmlns:xlink="http://www.w3.org/1999/xlink" version="1.1"><path d="M0 384L37.5 386.8C75 389.7 150 395.3 225 387.7C300 380 375 359 450 358.5C525 358 600 378 675 385C750 392 825 386 862.5 383L900 380L900 451L862.5 451C825 451 750 451 675 451C600 451 525 451 450 451C375 451 300 451 225 451C150 451 75 451 37.5 451L0 451Z" fill="#a9ebeb"></path><path d="M0 402L37.5 407C75 412 150 422 225 424.2C300 426.3 375 420.7 450 410.3C525 400 600 385 675 380.8C750 376.7 825 383.3 862.5 386.7L900 390L900 451L862.5 451C825 451 750 451 675 451C600 451 525 451 450 451C375 451 300 451 225 451C150 451 75 451 37.5 451L0 451Z" fill="#5a9faf"></path><path d="M0 398L37.5 401C75 404 150 410 225 415.7C300 421.3 375 426.7 450 428.8C525 431 600 430 675 426C750 422 825 415 862.5 411.5L900 408L900 451L862.5 451C825 451 750 451 675 451C600 451 525 451 450 451C375 451 300 451 225 451C150 451 75 451 37.5 451L0 451Z" fill="#0b5874"></path></svg>